<mxfile host="Electron" modified="2023-12-24T14:19:07.667Z" agent="Mozilla/5.0 (Macintosh; Intel Mac OS X 10_15_7) AppleWebKit/537.36 (KHTML, like Gecko) draw.io/21.2.1 Chrome/112.0.5615.87 Electron/24.1.2 Safari/537.36" etag="AoKY7tzvqtuYtUnN9arr" version="21.2.1" type="device">
  <diagram name="Page-1" id="iRMYoeV2WN8iNWqU3HRv">
    <mxGraphModel dx="1200" dy="801" grid="1" gridSize="10" guides="1" tooltips="1" connect="1" arrows="1" fold="1" page="1" pageScale="1" pageWidth="1100" pageHeight="850" math="0" shadow="0">
      <root>
        <mxCell id="0" />
        <mxCell id="1" parent="0" />
        <mxCell id="sqB8z8xDgT_XmHM7QCqE-1" value="" style="swimlane;startSize=0;fillColor=default;strokeColor=default;swimlaneLine=1;rounded=0;" parent="1" vertex="1">
          <mxGeometry x="300" y="320" width="360" height="390" as="geometry" />
        </mxCell>
        <mxCell id="sqB8z8xDgT_XmHM7QCqE-5" value="Topic name and file location" style="rounded=1;whiteSpace=wrap;html=1;" parent="sqB8z8xDgT_XmHM7QCqE-1" vertex="1">
          <mxGeometry x="115" y="20" width="130" height="45" as="geometry" />
        </mxCell>
        <mxCell id="sqB8z8xDgT_XmHM7QCqE-7" value="Json Producer" style="text;html=1;align=center;verticalAlign=middle;resizable=0;points=[];autosize=1;strokeColor=none;fillColor=none;" parent="sqB8z8xDgT_XmHM7QCqE-1" vertex="1">
          <mxGeometry x="10" width="100" height="30" as="geometry" />
        </mxCell>
        <mxCell id="sqB8z8xDgT_XmHM7QCqE-33" value="" style="edgeStyle=orthogonalEdgeStyle;rounded=0;orthogonalLoop=1;jettySize=auto;html=1;entryX=0.5;entryY=0;entryDx=0;entryDy=0;" parent="sqB8z8xDgT_XmHM7QCqE-1" source="sqB8z8xDgT_XmHM7QCqE-10" target="sqB8z8xDgT_XmHM7QCqE-11" edge="1">
          <mxGeometry relative="1" as="geometry" />
        </mxCell>
        <mxCell id="sqB8z8xDgT_XmHM7QCqE-10" value="Get Schema Structure" style="rounded=1;whiteSpace=wrap;html=1;" parent="sqB8z8xDgT_XmHM7QCqE-1" vertex="1">
          <mxGeometry x="115" y="82.5" width="130" height="45" as="geometry" />
        </mxCell>
        <mxCell id="sqB8z8xDgT_XmHM7QCqE-35" value="" style="edgeStyle=orthogonalEdgeStyle;rounded=0;orthogonalLoop=1;jettySize=auto;html=1;entryX=0.5;entryY=0;entryDx=0;entryDy=0;" parent="sqB8z8xDgT_XmHM7QCqE-1" source="sqB8z8xDgT_XmHM7QCqE-11" target="sqB8z8xDgT_XmHM7QCqE-23" edge="1">
          <mxGeometry relative="1" as="geometry" />
        </mxCell>
        <mxCell id="bqNoKuBYXy_VpDzHtr6z-6" style="edgeStyle=orthogonalEdgeStyle;rounded=0;orthogonalLoop=1;jettySize=auto;html=1;" parent="sqB8z8xDgT_XmHM7QCqE-1" source="sqB8z8xDgT_XmHM7QCqE-11" edge="1">
          <mxGeometry relative="1" as="geometry">
            <mxPoint x="270" y="340" as="targetPoint" />
          </mxGeometry>
        </mxCell>
        <mxCell id="sqB8z8xDgT_XmHM7QCqE-11" value="Json Serializer" style="rounded=1;whiteSpace=wrap;html=1;" parent="sqB8z8xDgT_XmHM7QCqE-1" vertex="1">
          <mxGeometry x="115" y="160" width="130" height="45" as="geometry" />
        </mxCell>
        <mxCell id="sqB8z8xDgT_XmHM7QCqE-36" value="" style="edgeStyle=orthogonalEdgeStyle;rounded=0;orthogonalLoop=1;jettySize=auto;html=1;" parent="sqB8z8xDgT_XmHM7QCqE-1" source="sqB8z8xDgT_XmHM7QCqE-23" target="sqB8z8xDgT_XmHM7QCqE-25" edge="1">
          <mxGeometry relative="1" as="geometry" />
        </mxCell>
        <mxCell id="sqB8z8xDgT_XmHM7QCqE-23" value="Producer" style="rounded=1;whiteSpace=wrap;html=1;" parent="sqB8z8xDgT_XmHM7QCqE-1" vertex="1">
          <mxGeometry x="115" y="240" width="130" height="45" as="geometry" />
        </mxCell>
        <mxCell id="sqB8z8xDgT_XmHM7QCqE-25" value="Send data to Kafka" style="rounded=1;whiteSpace=wrap;html=1;" parent="sqB8z8xDgT_XmHM7QCqE-1" vertex="1">
          <mxGeometry x="115" y="320" width="130" height="45" as="geometry" />
        </mxCell>
        <mxCell id="sqB8z8xDgT_XmHM7QCqE-2" value="" style="swimlane;startSize=0;" parent="1" vertex="1">
          <mxGeometry x="760" y="368" width="280" height="290" as="geometry" />
        </mxCell>
        <mxCell id="sqB8z8xDgT_XmHM7QCqE-17" value="Provide schema using file" style="ellipse;whiteSpace=wrap;html=1;" parent="sqB8z8xDgT_XmHM7QCqE-2" vertex="1">
          <mxGeometry x="95" y="18" width="120" height="80" as="geometry" />
        </mxCell>
        <mxCell id="sqB8z8xDgT_XmHM7QCqE-18" value="Json record&lt;br&gt;generator" style="ellipse;whiteSpace=wrap;html=1;" parent="sqB8z8xDgT_XmHM7QCqE-2" vertex="1">
          <mxGeometry x="95" y="174.5" width="120" height="80" as="geometry" />
        </mxCell>
        <mxCell id="sqB8z8xDgT_XmHM7QCqE-19" value="Generic" style="text;html=1;align=center;verticalAlign=middle;resizable=0;points=[];autosize=1;strokeColor=none;fillColor=none;" parent="sqB8z8xDgT_XmHM7QCqE-2" vertex="1">
          <mxGeometry x="10" width="70" height="30" as="geometry" />
        </mxCell>
        <mxCell id="sqB8z8xDgT_XmHM7QCqE-6" style="edgeStyle=orthogonalEdgeStyle;rounded=0;orthogonalLoop=1;jettySize=auto;html=1;exitX=1;exitY=0.5;exitDx=0;exitDy=0;" parent="1" source="sqB8z8xDgT_XmHM7QCqE-3" target="sqB8z8xDgT_XmHM7QCqE-5" edge="1">
          <mxGeometry relative="1" as="geometry" />
        </mxCell>
        <mxCell id="sqB8z8xDgT_XmHM7QCqE-3" value="Topic name and sample data file" style="rounded=1;whiteSpace=wrap;html=1;" parent="1" vertex="1">
          <mxGeometry x="90" y="342.5" width="120" height="40" as="geometry" />
        </mxCell>
        <mxCell id="sqB8z8xDgT_XmHM7QCqE-4" value="&lt;b&gt;Vehicle sensor/IOT sensor&lt;br&gt;Information&lt;/b&gt;" style="text;html=1;align=center;verticalAlign=middle;resizable=0;points=[];autosize=1;strokeColor=none;fillColor=none;" parent="1" vertex="1">
          <mxGeometry x="65" y="405" width="170" height="40" as="geometry" />
        </mxCell>
        <mxCell id="sqB8z8xDgT_XmHM7QCqE-8" value="&lt;b&gt;Step 1&lt;/b&gt;" style="text;html=1;align=center;verticalAlign=middle;resizable=0;points=[];autosize=1;strokeColor=none;fillColor=none;" parent="1" vertex="1">
          <mxGeometry x="200" y="338" width="60" height="30" as="geometry" />
        </mxCell>
        <mxCell id="sqB8z8xDgT_XmHM7QCqE-9" value="" style="swimlane;startSize=0;" parent="1" vertex="1">
          <mxGeometry x="335" y="60" width="290" height="220" as="geometry" />
        </mxCell>
        <mxCell id="sqB8z8xDgT_XmHM7QCqE-20" value="Kafka Cluster&lt;br&gt;Config" style="ellipse;whiteSpace=wrap;html=1;" parent="sqB8z8xDgT_XmHM7QCqE-9" vertex="1">
          <mxGeometry x="85" y="120" width="120" height="80" as="geometry" />
        </mxCell>
        <mxCell id="sqB8z8xDgT_XmHM7QCqE-37" value="Schema Config" style="ellipse;whiteSpace=wrap;html=1;" parent="sqB8z8xDgT_XmHM7QCqE-9" vertex="1">
          <mxGeometry x="85" y="10" width="120" height="80" as="geometry" />
        </mxCell>
        <mxCell id="sqB8z8xDgT_XmHM7QCqE-39" value="Kafka config" style="text;html=1;align=center;verticalAlign=middle;resizable=0;points=[];autosize=1;strokeColor=none;fillColor=none;" parent="sqB8z8xDgT_XmHM7QCqE-9" vertex="1">
          <mxGeometry x="-5" y="10" width="90" height="30" as="geometry" />
        </mxCell>
        <mxCell id="sqB8z8xDgT_XmHM7QCqE-24" style="edgeStyle=orthogonalEdgeStyle;rounded=0;orthogonalLoop=1;jettySize=auto;html=1;entryX=1;entryY=0.5;entryDx=0;entryDy=0;" parent="1" source="sqB8z8xDgT_XmHM7QCqE-16" target="sqB8z8xDgT_XmHM7QCqE-10" edge="1">
          <mxGeometry relative="1" as="geometry" />
        </mxCell>
        <mxCell id="sqB8z8xDgT_XmHM7QCqE-16" value="Schema File to define the structure of data" style="whiteSpace=wrap;html=1;shape=mxgraph.basic.document" parent="1" vertex="1">
          <mxGeometry x="610" y="375" width="100" height="100" as="geometry" />
        </mxCell>
        <mxCell id="sqB8z8xDgT_XmHM7QCqE-21" style="edgeStyle=orthogonalEdgeStyle;rounded=0;orthogonalLoop=1;jettySize=auto;html=1;entryX=1;entryY=0.5;entryDx=0;entryDy=0;entryPerimeter=0;" parent="1" source="sqB8z8xDgT_XmHM7QCqE-17" edge="1">
          <mxGeometry relative="1" as="geometry">
            <mxPoint x="710" y="426" as="targetPoint" />
          </mxGeometry>
        </mxCell>
        <mxCell id="sqB8z8xDgT_XmHM7QCqE-22" value="&lt;b&gt;Step 2&lt;/b&gt;" style="text;html=1;align=center;verticalAlign=middle;resizable=0;points=[];autosize=1;strokeColor=none;fillColor=none;" parent="1" vertex="1">
          <mxGeometry x="700" y="390.5" width="60" height="30" as="geometry" />
        </mxCell>
        <mxCell id="hRjpMMNEh72pVKw2oZXB-1" style="edgeStyle=orthogonalEdgeStyle;rounded=0;orthogonalLoop=1;jettySize=auto;html=1;entryX=1;entryY=0.5;entryDx=0;entryDy=0;" parent="1" source="sqB8z8xDgT_XmHM7QCqE-18" target="sqB8z8xDgT_XmHM7QCqE-25" edge="1">
          <mxGeometry relative="1" as="geometry" />
        </mxCell>
        <mxCell id="hRjpMMNEh72pVKw2oZXB-3" value="&lt;font style=&quot;font-size: 12px;&quot;&gt;Provide data&lt;/font&gt;" style="edgeLabel;html=1;align=center;verticalAlign=middle;resizable=0;points=[];" parent="hRjpMMNEh72pVKw2oZXB-1" vertex="1" connectable="0">
          <mxGeometry x="0.4313" relative="1" as="geometry">
            <mxPoint x="-39" as="offset" />
          </mxGeometry>
        </mxCell>
        <mxCell id="hRjpMMNEh72pVKw2oZXB-2" value="&lt;b&gt;Step 5&lt;/b&gt;" style="text;html=1;align=center;verticalAlign=middle;resizable=0;points=[];autosize=1;strokeColor=none;fillColor=none;" parent="1" vertex="1">
          <mxGeometry x="710" y="558" width="60" height="30" as="geometry" />
        </mxCell>
        <mxCell id="hRjpMMNEh72pVKw2oZXB-4" style="edgeStyle=orthogonalEdgeStyle;rounded=0;orthogonalLoop=1;jettySize=auto;html=1;entryX=0;entryY=0.5;entryDx=0;entryDy=0;" parent="1" source="sqB8z8xDgT_XmHM7QCqE-37" target="sqB8z8xDgT_XmHM7QCqE-11" edge="1">
          <mxGeometry relative="1" as="geometry">
            <Array as="points">
              <mxPoint x="290" y="110" />
              <mxPoint x="290" y="503" />
            </Array>
          </mxGeometry>
        </mxCell>
        <mxCell id="hRjpMMNEh72pVKw2oZXB-5" style="edgeStyle=orthogonalEdgeStyle;rounded=0;orthogonalLoop=1;jettySize=auto;html=1;entryX=0;entryY=0.5;entryDx=0;entryDy=0;exitX=0;exitY=0.5;exitDx=0;exitDy=0;" parent="1" source="sqB8z8xDgT_XmHM7QCqE-20" target="sqB8z8xDgT_XmHM7QCqE-23" edge="1">
          <mxGeometry relative="1" as="geometry">
            <Array as="points">
              <mxPoint x="260" y="220" />
              <mxPoint x="260" y="583" />
            </Array>
          </mxGeometry>
        </mxCell>
        <mxCell id="hRjpMMNEh72pVKw2oZXB-6" value="&lt;b&gt;Step 3&lt;/b&gt;" style="text;html=1;align=center;verticalAlign=middle;resizable=0;points=[];autosize=1;strokeColor=none;fillColor=none;" parent="1" vertex="1">
          <mxGeometry x="240" y="100" width="60" height="30" as="geometry" />
        </mxCell>
        <mxCell id="hRjpMMNEh72pVKw2oZXB-7" value="&lt;b&gt;Step 4&lt;/b&gt;" style="text;html=1;align=center;verticalAlign=middle;resizable=0;points=[];autosize=1;strokeColor=none;fillColor=none;" parent="1" vertex="1">
          <mxGeometry x="210" y="228" width="60" height="30" as="geometry" />
        </mxCell>
        <mxCell id="bqNoKuBYXy_VpDzHtr6z-11" style="edgeStyle=orthogonalEdgeStyle;rounded=0;orthogonalLoop=1;jettySize=auto;html=1;entryX=0.5;entryY=0;entryDx=0;entryDy=0;" parent="1" source="bqNoKuBYXy_VpDzHtr6z-7" target="bqNoKuBYXy_VpDzHtr6z-10" edge="1">
          <mxGeometry relative="1" as="geometry" />
        </mxCell>
        <mxCell id="bqNoKuBYXy_VpDzHtr6z-7" value="" style="sketch=0;points=[[0,0,0],[0.25,0,0],[0.5,0,0],[0.75,0,0],[1,0,0],[0,1,0],[0.25,1,0],[0.5,1,0],[0.75,1,0],[1,1,0],[0,0.25,0],[0,0.5,0],[0,0.75,0],[1,0.25,0],[1,0.5,0],[1,0.75,0]];outlineConnect=0;fontColor=#232F3E;gradientColor=#945DF2;gradientDirection=north;fillColor=#5A30B5;strokeColor=#ffffff;dashed=0;verticalLabelPosition=bottom;verticalAlign=top;align=center;html=1;fontSize=12;fontStyle=0;aspect=fixed;shape=mxgraph.aws4.resourceIcon;resIcon=mxgraph.aws4.managed_streaming_for_kafka;" parent="1" vertex="1">
          <mxGeometry x="445" y="730" width="70" height="70" as="geometry" />
        </mxCell>
        <mxCell id="bqNoKuBYXy_VpDzHtr6z-9" style="edgeStyle=orthogonalEdgeStyle;rounded=0;orthogonalLoop=1;jettySize=auto;html=1;entryX=0.5;entryY=0;entryDx=0;entryDy=0;entryPerimeter=0;" parent="1" source="sqB8z8xDgT_XmHM7QCqE-25" target="bqNoKuBYXy_VpDzHtr6z-7" edge="1">
          <mxGeometry relative="1" as="geometry">
            <mxPoint x="480" y="730" as="targetPoint" />
          </mxGeometry>
        </mxCell>
        <mxCell id="bqNoKuBYXy_VpDzHtr6z-14" style="edgeStyle=orthogonalEdgeStyle;rounded=0;orthogonalLoop=1;jettySize=auto;html=1;entryX=0;entryY=0.5;entryDx=0;entryDy=0;" parent="1" source="bqNoKuBYXy_VpDzHtr6z-10" target="bqNoKuBYXy_VpDzHtr6z-12" edge="1">
          <mxGeometry relative="1" as="geometry">
            <mxPoint x="570" y="865" as="targetPoint" />
          </mxGeometry>
        </mxCell>
        <mxCell id="bqNoKuBYXy_VpDzHtr6z-15" style="edgeStyle=orthogonalEdgeStyle;rounded=0;orthogonalLoop=1;jettySize=auto;html=1;entryX=1;entryY=0.5;entryDx=0;entryDy=0;" parent="1" source="bqNoKuBYXy_VpDzHtr6z-10" target="bqNoKuBYXy_VpDzHtr6z-13" edge="1">
          <mxGeometry relative="1" as="geometry" />
        </mxCell>
        <mxCell id="bqNoKuBYXy_VpDzHtr6z-10" value="" style="rhombus;whiteSpace=wrap;html=1;" parent="1" vertex="1">
          <mxGeometry x="440" y="830" width="80" height="70" as="geometry" />
        </mxCell>
        <mxCell id="bqNoKuBYXy_VpDzHtr6z-22" style="edgeStyle=orthogonalEdgeStyle;rounded=0;orthogonalLoop=1;jettySize=auto;html=1;entryX=1;entryY=0.5;entryDx=0;entryDy=0;entryPerimeter=0;" parent="1" source="bqNoKuBYXy_VpDzHtr6z-12" target="bqNoKuBYXy_VpDzHtr6z-21" edge="1">
          <mxGeometry relative="1" as="geometry">
            <Array as="points">
              <mxPoint x="660" y="970" />
            </Array>
          </mxGeometry>
        </mxCell>
        <mxCell id="bqNoKuBYXy_VpDzHtr6z-12" value="Log failure message into log file" style="rounded=1;whiteSpace=wrap;html=1;" parent="1" vertex="1">
          <mxGeometry x="600" y="835" width="120" height="60" as="geometry" />
        </mxCell>
        <mxCell id="bqNoKuBYXy_VpDzHtr6z-23" style="edgeStyle=orthogonalEdgeStyle;rounded=0;orthogonalLoop=1;jettySize=auto;html=1;entryX=0;entryY=0.5;entryDx=0;entryDy=0;entryPerimeter=0;" parent="1" source="bqNoKuBYXy_VpDzHtr6z-13" target="bqNoKuBYXy_VpDzHtr6z-21" edge="1">
          <mxGeometry relative="1" as="geometry">
            <Array as="points">
              <mxPoint x="300" y="970" />
            </Array>
          </mxGeometry>
        </mxCell>
        <mxCell id="bqNoKuBYXy_VpDzHtr6z-13" value="Log success message into log file" style="rounded=1;whiteSpace=wrap;html=1;" parent="1" vertex="1">
          <mxGeometry x="240" y="835" width="120" height="60" as="geometry" />
        </mxCell>
        <mxCell id="bqNoKuBYXy_VpDzHtr6z-16" value="Not&lt;br&gt;Published" style="text;html=1;align=center;verticalAlign=middle;resizable=0;points=[];autosize=1;strokeColor=none;fillColor=none;" parent="1" vertex="1">
          <mxGeometry x="510" y="830" width="80" height="40" as="geometry" />
        </mxCell>
        <mxCell id="bqNoKuBYXy_VpDzHtr6z-17" value="Published" style="text;html=1;align=center;verticalAlign=middle;resizable=0;points=[];autosize=1;strokeColor=none;fillColor=none;" parent="1" vertex="1">
          <mxGeometry x="360" y="840" width="80" height="30" as="geometry" />
        </mxCell>
        <mxCell id="bqNoKuBYXy_VpDzHtr6z-21" value="Log file" style="whiteSpace=wrap;html=1;shape=mxgraph.basic.document" parent="1" vertex="1">
          <mxGeometry x="430" y="930" width="90" height="80" as="geometry" />
        </mxCell>
        <mxCell id="bqNoKuBYXy_VpDzHtr6z-25" style="edgeStyle=orthogonalEdgeStyle;rounded=0;orthogonalLoop=1;jettySize=auto;html=1;entryX=0.5;entryY=1;entryDx=0;entryDy=0;" parent="1" source="bqNoKuBYXy_VpDzHtr6z-24" target="sqB8z8xDgT_XmHM7QCqE-18" edge="1">
          <mxGeometry relative="1" as="geometry" />
        </mxCell>
        <mxCell id="bqNoKuBYXy_VpDzHtr6z-24" value="Change the code to load actual sensor reading, from device" style="shape=note;strokeWidth=2;fontSize=14;size=20;whiteSpace=wrap;html=1;fillColor=#fff2cc;strokeColor=#d6b656;fontColor=#666600;" parent="1" vertex="1">
          <mxGeometry x="845" y="680" width="140" height="100" as="geometry" />
        </mxCell>
      </root>
    </mxGraphModel>
  </diagram>
</mxfile>
